<svg xmlns="http://www.w3.org/2000/svg" viewBox="0 0 312 380"><title>Asset 1</title><polygon points="170.72 74.5 192 40.81 213.28 74.5 170.72 74.5" fill="#f1f1f1"/><path d="M192,43.62,210.56,73H173.44L192,43.62M192,38,168,76h48L192,38Z" fill="#fff"/><polygon points="146.72 36.5 168 2.81 189.28 36.5 146.72 36.5" fill="#f1f1f1"/><path d="M168,5.62,186.56,35H149.44L168,5.62M168,0,144,38h48L168,0Z" fill="#fff"/><polygon points="170.72 1.5 213.28 1.5 192 35.19 170.72 1.5" fill="#f1f1f1"/><path d="M210.56,3,192,32.38,173.44,3h37.11M216,0H168l24,38L216,0Z" fill="#fff"/><polygon points="146.72 39.5 189.28 39.5 168 73.19 146.72 39.5" fill="#f1f1f1"/><path d="M186.56,41,168,70.38,149.44,41h37.11M192,38H144l24,38,24-38Z" fill="#fff"/><polygon points="170.72 150.5 192 116.81 213.28 150.5 170.72 150.5" fill="#f1f1f1"/><path d="M192,119.62,210.56,149H173.44L192,119.62m0-5.62-24,38h48l-24-38Z" fill="#fff"/><polygon points="170.72 226.5 192 192.81 213.28 226.5 170.72 226.5" fill="#f1f1f1"/><path d="M192,195.62,210.56,225H173.44L192,195.62m0-5.62-24,38h48l-24-38Z" fill="#fff"/><polygon points="170.72 77.5 213.28 77.5 192 111.19 170.72 77.5" fill="#f1f1f1"/><path d="M210.56,79,192,108.38,173.44,79h37.11M216,76H168l24,38,24-38Z" fill="#fff"/><polygon points="122.72 150.5 144 116.81 165.28 150.5 122.72 150.5" fill="#f1f1f1"/><path d="M144,119.62,162.56,149H125.44L144,119.62m0-5.62-24,38h48l-24-38Z" fill="#fff"/><polygon points="98.72 112.5 120 78.81 141.28 112.5 98.72 112.5" fill="#f1f1f1"/><path d="M120,81.62,138.56,111H101.44L120,81.62M120,76,96,114h48L120,76Z" fill="#fff"/><polygon points="50.72 112.5 72 78.81 93.28 112.5 50.72 112.5" fill="#f1f1f1"/><path d="M72,81.62,90.56,111H53.44L72,81.62M72,76,48,114H96L72,76Z" fill="#fff"/><polygon points="74.72 77.5 117.28 77.5 96 111.19 74.72 77.5" fill="#f1f1f1"/><path d="M114.56,79,96,108.38,77.44,79h37.11M120,76H72l24,38,24-38Z" fill="#fff"/><polygon points="26.72 153.5 69.28 153.5 48 187.19 26.72 153.5" fill="#f1f1f1"/><path d="M66.56,155,48,184.38,29.44,155H66.56M72,152H24l24,38,24-38Z" fill="#fff"/><polygon points="50.72 191.5 93.28 191.5 72 225.19 50.72 191.5" fill="#f1f1f1"/><path d="M90.56,193,72,222.38,53.44,193H90.56M96,190H48l24,38,24-38Z" fill="#fff"/><polygon points="26.72 229.5 69.28 229.5 48 263.19 26.72 229.5" fill="#f1f1f1"/><path d="M66.56,231,48,260.38,29.44,231H66.56M72,228H24l24,38,24-38Z" fill="#fff"/><polygon points="26.72 150.5 48 116.81 69.28 150.5 26.72 150.5" fill="#f1f1f1"/><path d="M48,119.62,66.56,149H29.44L48,119.62M48,114,24,152H72L48,114Z" fill="#fff"/><polygon points="2.72 112.5 24 78.81 45.28 112.5 2.72 112.5" fill="#f1f1f1"/><path d="M24,81.62,42.56,111H5.44L24,81.62M24,76,0,114H48L24,76Z" fill="#fff"/><polygon points="218.72 74.5 240 40.81 261.28 74.5 218.72 74.5" fill="#f1f1f1"/><path d="M240,43.62,258.56,73H221.44L240,43.62M240,38,216,76h48L240,38Z" fill="#fff"/><polygon points="194.72 36.5 216 2.81 237.28 36.5 194.72 36.5" fill="#f1f1f1"/><path d="M216,5.62,234.56,35H197.44L216,5.62M216,0,192,38h48L216,0Z" fill="#fff"/><polygon points="194.72 39.5 237.28 39.5 216 73.19 194.72 39.5" fill="#f1f1f1"/><path d="M234.56,41,216,70.38,197.44,41h37.11M240,38H192l24,38,24-38Z" fill="#fff"/><polygon points="26.72 302.5 48 268.81 69.28 302.5 26.72 302.5" fill="#f1f1f1"/><path d="M48,271.62,66.56,301H29.44L48,271.62M48,266,24,304H72L48,266Z" fill="#fff"/><polygon points="26.72 378.5 48 344.81 69.28 378.5 26.72 378.5" fill="#f1f1f1"/><path d="M48,347.62,66.56,377H29.44L48,347.62M48,342,24,380H72L48,342Z" fill="#fff"/><polygon points="50.72 267.5 93.28 267.5 72 301.19 50.72 267.5" fill="#f1f1f1"/><path d="M90.56,269,72,298.38,53.44,269H90.56M96,266H48l24,38,24-38Z" fill="#fff"/><polygon points="26.72 305.5 69.28 305.5 48 339.19 26.72 305.5" fill="#f1f1f1"/><path d="M66.56,307,48,336.38,29.44,307H66.56M72,304H24l24,38,24-38Z" fill="#fff"/><polygon points="74.72 302.5 96 268.81 117.28 302.5 74.72 302.5" fill="#f1f1f1"/><path d="M96,271.62,114.56,301H77.44L96,271.62M96,266,72,304h48L96,266Z" fill="#fff"/><polygon points="74.72 305.5 117.28 305.5 96 339.19 74.72 305.5" fill="#f1f1f1"/><path d="M114.56,307,96,336.38,77.44,307h37.11m5.44-3H72l24,38,24-38Z" fill="#fff"/><polygon points="194.72 188.5 216 154.81 237.28 188.5 194.72 188.5" fill="#f1f1f1"/><path d="M216,157.62,234.56,187H197.44L216,157.62m0-5.62-24,38h48l-24-38Z" fill="#fff"/><polygon points="146.72 188.5 168 154.81 189.28 188.5 146.72 188.5" fill="#f1f1f1"/><path d="M168,157.62,186.56,187H149.44L168,157.62m0-5.62-24,38h48l-24-38Z" fill="#fff"/><polygon points="98.72 188.5 120 154.81 141.28 188.5 98.72 188.5" fill="#f1f1f1"/><path d="M120,157.62,138.56,187H101.44L120,157.62m0-5.62L96,190h48l-24-38Z" fill="#fff"/><polygon points="50.72 188.5 72 154.81 93.28 188.5 50.72 188.5" fill="#f1f1f1"/><path d="M72,157.62,90.56,187H53.44L72,157.62M72,152,48,190H96L72,152Z" fill="#fff"/><polygon points="2.72 188.5 24 154.81 45.28 188.5 2.72 188.5" fill="#f1f1f1"/><path d="M24,157.62,42.56,187H5.44L24,157.62M24,152,0,190H48L24,152Z" fill="#fff"/><polygon points="194.72 191.5 237.28 191.5 216 225.19 194.72 191.5" fill="#f1f1f1"/><path d="M234.56,193,216,222.38,197.44,193h37.11m5.44-3H192l24,38,24-38Z" fill="#fff"/><polygon points="218.72 153.5 261.28 153.5 240 187.19 218.72 153.5" fill="#f1f1f1"/><path d="M258.56,155,240,184.38,221.44,155h37.11m5.44-3H216l24,38,24-38Z" fill="#fff"/><polygon points="266.72 1.5 309.28 1.5 288 35.19 266.72 1.5" fill="#f1f1f1"/><path d="M306.56,3,288,32.38,269.44,3h37.11M312,0H264l24,38L312,0Z" fill="#fff"/><polygon points="122.72 74.5 144 40.81 165.28 74.5 122.72 74.5" fill="#f1f1f1"/><path d="M144,43.62,162.56,73H125.44L144,43.62M144,38,120,76h48L144,38Z" fill="#fff"/><polygon points="98.72 36.5 120 2.81 141.28 36.5 98.72 36.5" fill="#f1f1f1"/><path d="M120,5.62,138.56,35H101.44L120,5.62M120,0,96,38h48L120,0Z" fill="#fff"/><polygon points="122.72 1.5 165.28 1.5 144 35.19 122.72 1.5" fill="#f1f1f1"/><path d="M162.56,3,144,32.38,125.44,3h37.11M168,0H120l24,38L168,0Z" fill="#fff"/><polygon points="50.72 36.5 72 2.81 93.28 36.5 50.72 36.5" fill="#f1f1f1"/><path d="M72,5.62,90.56,35H53.44L72,5.62M72,0,48,38H96L72,0Z" fill="#fff"/><polygon points="50.72 39.5 93.28 39.5 72 73.19 50.72 39.5" fill="#f1f1f1"/><path d="M90.56,41,72,70.38,53.44,41H90.56M96,38H48L72,76,96,38Z" fill="#fff"/><polygon points="26.72 74.5 48 40.81 69.28 74.5 26.72 74.5" fill="#f1f1f1"/><path d="M48,43.62,66.56,73H29.44L48,43.62M48,38,24,76H72L48,38Z" fill="#fff"/><polygon points="2.72 36.5 24 2.81 45.28 36.5 2.72 36.5" fill="#f1f1f1"/><path d="M24,5.62,42.56,35H5.44L24,5.62M24,0,0,38H48L24,0Z" fill="#fff"/><polygon points="26.72 1.5 69.28 1.5 48 35.19 26.72 1.5" fill="#f1f1f1"/><path d="M66.56,3,48,32.38,29.44,3H66.56M72,0H24L48,38,72,0Z" fill="#fff"/></svg>