<svg xmlns="http://www.w3.org/2000/svg" viewBox="0 0 50 64"><title>Asset 1</title><polygon points="44 58 22 58 22 60 46 60 46 36 44 36 44 58" fill="#1f613b"/><path d="M2,2H36v8h8V20h2V8.59L37.41,0H0V60H7V58H2ZM38,3.41,42.59,8H38Z" fill="#1f613b"/><path d="M49.71,27.29l-5-5a1,1,0,0,0-1.41,0L40,25.59l-2.29-2.29a1,1,0,0,0-1.41,0l-10,10a1,1,0,1,0,1.41,1.41L37,25.41,38.59,27,11.29,54.29a1,1,0,0,0-.23.36l-3,8a1,1,0,0,0,1.29,1.29l8-3a1,1,0,0,0,.36-.23l32-32A1,1,0,0,0,49.71,27.29ZM27,48.59,23.41,45,40,28.41,43.59,32ZM13.41,55,22,46.41,25.59,50,17,58.59Zm-1,1.81,2.8,2.8-4.49,1.68ZM45,30.59,41.41,27,44,24.41,47.59,28Z" fill="#1f613b"/></svg>