<svg xmlns="http://www.w3.org/2000/svg" viewBox="0 0 64 64"><title>Asset 1</title><path d="M56,22v2h4.59L54,30.59v-22L45.41,0H10V30.59L3.41,24H8V22H0V64H64V22ZM46,3.41,50.59,8H46ZM38,2v8H18V2ZM12,2h4V12H40V2h4v8h8V32.59l-9.71,9.71,1.41,1.41L62,25.41V61L32,37.74,2,61V25.41L20.29,43.71l1.41-1.41L12,32.59ZM60.07,62H3.93L32,40.26Z" fill="#1f613b"/><rect x="31" y="58" width="2" height="2" fill="#1f613b"/><rect x="35" y="58" width="2" height="2" fill="#1f613b"/><rect x="27" y="58" width="2" height="2" fill="#1f613b"/><rect x="20" y="4" width="2" height="2" fill="#1f613b"/><rect x="24" y="4" width="2" height="2" fill="#1f613b"/><rect x="28" y="4" width="2" height="2" fill="#1f613b"/><rect x="16" y="14" width="32" height="2" fill="#1f613b"/><rect x="16" y="18" width="32" height="2" fill="#1f613b"/><rect x="16" y="22" width="32" height="2" fill="#1f613b"/><rect x="16" y="26" width="32" height="2" fill="#1f613b"/><rect x="16" y="30" width="32" height="2" fill="#1f613b"/></svg>