<?xml version="1.0" encoding="utf-8"?>
<!-- Generator: Adobe Illustrator 21.1.0, SVG Export Plug-In . SVG Version: 6.00 Build 0)  -->
<svg version="1.1" id="Layer_1" xmlns="http://www.w3.org/2000/svg" xmlns:xlink="http://www.w3.org/1999/xlink" x="0px" y="0px"
	 viewBox="0 0 196.1 59.4" style="enable-background:new 0 0 196.1 59.4;" xml:space="preserve">
<style type="text/css">
	.st0{fill:#FFFFFF;}
</style>
<title>logo</title>
<path class="st0" d="M0,6.4V5.4L8.7,0l1.1,1.7L3,5.8l6.8,4l-1.1,1.7L0,6.4z"/>
<path class="st0" d="M25.6,12.2c-0.6,0-1.2-0.1-1.8-0.3c-0.5-0.2-0.9-0.6-1.2-1c-0.3-0.5-0.5-1-0.6-1.5c-0.2-0.7-0.3-1.3-0.3-2h-1
	v4.5h-2.8V0.6h2.7v4.2h1c0.1-0.7,0.2-1.3,0.4-1.9c0.1-0.5,0.4-1,0.7-1.4c0.3-0.4,0.8-0.7,1.2-0.9c0.5-0.2,1.1-0.3,1.7-0.3
	c0.7,0,1.4,0.1,2,0.4c0.5,0.3,0.9,0.7,1.1,1.2c0.3,0.6,0.5,1.2,0.6,1.9c0.1,0.8,0.2,1.6,0.2,2.4c0,0.8-0.1,1.7-0.2,2.5
	c-0.1,0.7-0.3,1.3-0.7,1.9c-0.3,0.5-0.7,0.9-1.3,1.2C26.9,12.1,26.3,12.2,25.6,12.2z M24.2,6.3c0,0.9,0.1,1.7,0.3,2.6
	c0.1,0.5,0.6,0.9,1.1,0.9c0.5,0,0.9-0.3,1-0.8c0.2-0.9,0.3-1.8,0.3-2.7c0-0.9-0.1-1.7-0.3-2.6c-0.1-0.5-0.5-0.9-1.1-0.8
	c-0.5,0-0.9,0.3-1,0.8C24.3,4.5,24.2,5.4,24.2,6.3z"/>
<path class="st0" d="M31.2,9.4h1.5V3.1h-1.5V0.6H42v4.5h-2.5v-2h-3.8v6.3h3.8v2.5h-8.3C31.2,11.9,31.2,9.4,31.2,9.4z"/>
<path class="st0" d="M43.7,6.3c0-0.9,0.1-1.7,0.4-2.5c0.5-1.4,1.7-2.5,3.1-3c0.8-0.3,1.6-0.4,2.4-0.4c0.9,0,1.7,0.1,2.5,0.4
	C52.9,1,53.5,1.5,54.1,2c0.5,0.5,0.9,1.2,1.2,1.9c0.3,0.8,0.4,1.6,0.4,2.4c0,0.9-0.1,1.7-0.4,2.5c-0.5,1.4-1.7,2.5-3.1,3
	c-0.8,0.3-1.6,0.4-2.4,0.4c-0.9,0-1.7-0.1-2.5-0.4c-0.7-0.3-1.3-0.7-1.9-1.2c-0.5-0.5-0.9-1.2-1.2-1.9C43.8,7.9,43.7,7.1,43.7,6.3z
	 M46.7,6.3c0,0.5,0.1,0.9,0.2,1.4C47,8,47.2,8.4,47.5,8.7c0.2,0.3,0.6,0.6,0.9,0.7c0.4,0.2,0.8,0.3,1.2,0.3c0.8,0,1.6-0.3,2.1-0.8
	c0.6-0.7,0.9-1.7,0.8-2.6c0-0.9-0.2-1.8-0.8-2.5c-0.5-0.7-1.3-1-2.2-1c-0.4,0-0.8,0.1-1.1,0.2c-0.4,0.1-0.7,0.3-0.9,0.6
	c-0.3,0.3-0.5,0.7-0.6,1.1C46.8,5.2,46.7,5.7,46.7,6.3C46.7,6.3,46.7,6.3,46.7,6.3z"/>
<path class="st0" d="M55.9,0.6h3.8L60.1,2h0.1c0.9-1.2,2.3-1.8,3.8-1.7c0.6,0,1.3,0.1,1.9,0.3c0.6,0.2,1.1,0.6,1.5,1
	c0.5,0.5,0.8,1.1,1,1.8c0.2,0.8,0.3,1.7,0.2,2.6c0,0.9-0.1,1.8-0.4,2.6c-0.2,0.7-0.6,1.4-1.1,2c-0.5,0.5-1.1,1-1.8,1.2
	c-0.8,0.3-1.6,0.4-2.4,0.4c-0.5,0-0.9,0-1.4-0.1c-0.4-0.1-0.8-0.2-1.1-0.3v4.6h-2.9V3.1h-1.7L55.9,0.6L55.9,0.6z M63.1,2.8
	c-0.5,0-1.1,0.1-1.6,0.4c-0.5,0.3-0.8,0.7-1,1.3v4.7c0.3,0.2,0.6,0.3,0.9,0.4c0.4,0.1,0.8,0.1,1.2,0.1c0.4,0,0.8-0.1,1.2-0.2
	c0.4-0.1,0.7-0.4,0.9-0.7c0.3-0.3,0.5-0.8,0.6-1.2c0.2-0.6,0.2-1.1,0.2-1.7c0.1-0.8-0.2-1.6-0.7-2.3C64.4,3.1,63.8,2.8,63.1,2.8
	L63.1,2.8z"/>
<path class="st0" d="M81.2,10.8c-0.6,0.5-1.4,0.8-2.2,1c-0.8,0.2-1.7,0.4-2.6,0.4c-0.9,0-1.8-0.1-2.6-0.4c-0.7-0.3-1.3-0.6-1.9-1.2
	c-0.5-0.5-0.9-1.2-1.2-1.9c-0.3-0.8-0.4-1.6-0.4-2.4c0-0.9,0.1-1.7,0.5-2.5c0.3-0.7,0.7-1.3,1.3-1.9c0.6-0.5,1.3-0.9,2-1.2
	c0.8-0.3,1.6-0.4,2.4-0.4c0.8,0,1.6,0.1,2.3,0.3c0.6,0.1,1.1,0.3,1.7,0.6v3.9h-2.5V3.1c-0.5-0.1-0.9-0.2-1.4-0.2
	c-0.4,0-0.8,0.1-1.3,0.2c-0.4,0.1-0.8,0.3-1.1,0.6c-0.3,0.3-0.6,0.6-0.8,1c-0.2,0.5-0.3,1-0.3,1.5c0,0.5,0.1,0.9,0.3,1.3
	c0.3,0.8,1,1.5,1.8,1.8c0.5,0.2,1,0.3,1.5,0.3c0.7,0,1.4-0.1,2.1-0.3c0.4-0.2,0.8-0.4,1.2-0.6L81.2,10.8z"/>
<path class="st0" d="M88,7.4h-1.4v4.4h-2.9V0.6h2.9v4.6h1.2l3.7-4.6h3.3l-4.5,5.2l2.8,3.5h2v2.5h-3.4L88,7.4z"/>
<path class="st0" d="M104.1,6.8l0.1-1.6h-0.1l-5.4,6.7h-2.3V0.6h2.9V6l-0.1,1.5h0.1l5.4-6.9h2.3v11.2h-2.9L104.1,6.8L104.1,6.8z"/>
<path class="st0" d="M120,10.7c-0.2,0.2-0.5,0.4-0.8,0.5c-0.3,0.2-0.7,0.4-1.1,0.5c-0.4,0.2-0.9,0.3-1.4,0.4c-0.5,0.1-1,0.1-1.6,0.1
	c-0.9,0-1.7-0.1-2.6-0.4c-1.4-0.5-2.6-1.6-3.1-3c-0.3-0.8-0.4-1.6-0.4-2.5c0-0.9,0.1-1.8,0.5-2.6c0.3-0.7,0.7-1.3,1.3-1.9
	c0.5-0.5,1.2-0.9,1.9-1.1c1.3-0.4,2.8-0.5,4.1-0.1c0.6,0.1,1.2,0.4,1.7,0.8c0.5,0.4,1,0.9,1.3,1.5c0.3,0.7,0.5,1.5,0.5,2.3
	c0,0.7-0.1,1.4-0.2,2.1H112c0,0.4,0.1,0.8,0.3,1.2c0.2,0.3,0.4,0.6,0.7,0.8c0.3,0.2,0.7,0.4,1.1,0.5c0.4,0.1,0.8,0.2,1.3,0.1
	c0.7,0,1.5-0.1,2.2-0.3c0.5-0.2,1-0.4,1.4-0.8L120,10.7z M115.2,2.7c-0.4,0-0.7,0.1-1.1,0.2c-0.3,0.1-0.6,0.3-0.9,0.5
	c-0.3,0.2-0.5,0.5-0.7,0.8c-0.2,0.3-0.3,0.6-0.3,1h5.5c0-0.6-0.2-1.3-0.7-1.8C116.5,2.9,115.8,2.6,115.2,2.7L115.2,2.7z"/>
<path class="st0" d="M78,28.3l0.1-1.6h0l-5.4,6.7h-2.3V22.2h2.9v5.3L73.2,29h0.1l5.4-6.9H81v11.3h-3V28.3z"/>
<path class="st0" d="M91.1,29h-4.8v4.4h-2.9V22.2h2.9v4.2h4.8v-4.2H94v11.2h-2.9V29z"/>
<path class="st0" d="M97.3,30.9h2.9v-6.2h-1.8v1.9h-2.5v-4.5h11.5v4.5H105v-1.9h-1.8v6.2h2.9v2.5h-8.8V30.9z"/>
<path class="st0" d="M120,32.2c-0.2,0.2-0.5,0.4-0.8,0.5c-0.3,0.2-0.7,0.3-1.1,0.5c-0.4,0.2-0.9,0.3-1.4,0.4c-0.5,0.1-1,0.1-1.6,0.1
	c-0.9,0-1.7-0.1-2.6-0.4c-1.4-0.5-2.6-1.6-3.1-3c-0.3-0.8-0.4-1.6-0.4-2.5c0-0.9,0.1-1.8,0.5-2.6c0.3-0.7,0.7-1.3,1.3-1.9
	c0.6-0.5,1.2-0.9,1.9-1.1c1.3-0.4,2.8-0.5,4.1-0.1c0.6,0.1,1.2,0.4,1.7,0.8c0.5,0.4,1,0.9,1.3,1.5c0.3,0.7,0.5,1.5,0.5,2.3
	c0,0.7-0.1,1.4-0.2,2.1H112c0,0.4,0.1,0.8,0.3,1.2c0.2,0.3,0.4,0.6,0.7,0.8c0.3,0.2,0.7,0.4,1.1,0.5c0.4,0.1,0.8,0.2,1.3,0.1
	c0.7,0,1.5-0.1,2.2-0.3c0.5-0.2,1-0.4,1.4-0.8L120,32.2z M115.2,24.2c-0.4,0-0.7,0.1-1.1,0.2c-0.3,0.1-0.6,0.3-0.9,0.5
	c-0.3,0.2-0.5,0.5-0.7,0.8c-0.2,0.3-0.3,0.6-0.3,1h5.5c0.1-1.2-0.8-2.3-2-2.4C115.5,24.1,115.3,24.2,115.2,24.2L115.2,24.2z"/>
<path class="st0" d="M121,22.2h3.8l0.3,1.4h0.1c0.9-1.2,2.3-1.8,3.8-1.7c0.6,0,1.3,0.1,1.9,0.3c0.6,0.2,1.1,0.6,1.5,1
	c0.5,0.5,0.8,1.1,1,1.8c0.2,0.8,0.4,1.7,0.3,2.5c0,0.9-0.1,1.8-0.4,2.6c-0.2,0.7-0.6,1.4-1.1,2c-0.5,0.5-1.1,1-1.8,1.2
	c-0.8,0.3-1.6,0.4-2.4,0.4c-0.5,0-0.9,0-1.4-0.1c-0.4-0.1-0.8-0.2-1.1-0.3v4.6h-2.9V24.6H121V22.2z M128.1,24.3
	c-0.6,0-1.1,0.1-1.6,0.4c-0.5,0.3-0.8,0.7-1,1.3v4.7c0.3,0.2,0.6,0.3,0.9,0.4c0.4,0.1,0.8,0.1,1.2,0.1c0.4,0,0.8-0.1,1.2-0.2
	c0.4-0.1,0.7-0.4,0.9-0.7c0.3-0.3,0.5-0.8,0.6-1.2c0.2-0.6,0.2-1.1,0.2-1.7c0.1-0.8-0.2-1.6-0.7-2.3
	C129.5,24.6,128.8,24.3,128.1,24.3z"/>
<path class="st0" d="M143.1,29h-4.8v4.4h-2.9V22.2h2.9v4.2h4.8v-4.2h2.9v11.2h-2.9V29z"/>
<path class="st0" d="M159,32.2c-0.2,0.2-0.5,0.4-0.8,0.5c-0.3,0.2-0.7,0.3-1.1,0.5c-0.4,0.2-0.9,0.3-1.4,0.4c-0.5,0.1-1,0.1-1.6,0.1
	c-0.9,0-1.7-0.1-2.6-0.4c-1.4-0.5-2.6-1.6-3.1-3c-0.3-0.8-0.4-1.6-0.4-2.5c0-0.9,0.1-1.8,0.5-2.6c0.3-0.7,0.7-1.3,1.3-1.9
	c0.6-0.5,1.2-0.9,1.9-1.1c1.3-0.4,2.8-0.5,4.1-0.1c0.6,0.1,1.2,0.4,1.7,0.8c0.5,0.4,1,0.9,1.3,1.5c0.3,0.7,0.5,1.5,0.5,2.3
	c0,0.7-0.1,1.4-0.2,2.1H151c0,0.4,0.1,0.8,0.3,1.2c0.2,0.3,0.4,0.6,0.7,0.8c0.3,0.2,0.7,0.4,1.1,0.5c0.4,0.1,0.8,0.2,1.3,0.1
	c0.7,0,1.5-0.1,2.2-0.3c0.5-0.2,1-0.4,1.4-0.8L159,32.2z M154.1,24.2c-0.4,0-0.7,0.1-1.1,0.2c-0.3,0.1-0.6,0.3-0.9,0.5
	c-0.3,0.2-0.5,0.5-0.7,0.8c-0.2,0.3-0.3,0.6-0.3,1h5.5c0.1-1.2-0.8-2.3-2-2.4C154.5,24.2,154.3,24.2,154.1,24.2L154.1,24.2
	L154.1,24.2z"/>
<path class="st0" d="M162.3,30.9h2.9v-6.2h-1.8v1.9H161v-4.5h11.5v4.5h-2.5v-1.9h-1.8v6.2h2.9v2.5h-8.8L162.3,30.9
	C162.4,30.9,162.3,30.9,162.3,30.9z"/>
<path class="st0" d="M68.7,43.7h3.8l0.3,1.3h0.1c0.9-1.2,2.3-1.8,3.8-1.7c0.6,0,1.3,0.1,1.9,0.3c0.6,0.2,1.1,0.6,1.5,1
	c0.5,0.5,0.8,1.1,1,1.8c0.2,0.8,0.3,1.7,0.3,2.6c0,0.9-0.1,1.7-0.4,2.6c-0.2,0.7-0.6,1.4-1.1,2c-0.5,0.5-1.1,1-1.8,1.2
	c-0.8,0.3-1.6,0.4-2.4,0.4c-0.5,0-0.9,0-1.4-0.1c-0.4-0.1-0.8-0.2-1.1-0.3v4.6h-2.9V46.1h-1.7L68.7,43.7L68.7,43.7z M75.8,45.8
	c-0.6,0-1.1,0.1-1.6,0.4c-0.5,0.3-0.8,0.7-1,1.3v4.7c0.3,0.2,0.6,0.3,0.9,0.4c0.4,0.1,0.8,0.1,1.2,0.2c0.4,0,0.8-0.1,1.2-0.2
	c0.4-0.1,0.7-0.4,0.9-0.7c0.3-0.3,0.5-0.8,0.6-1.2c0.2-0.6,0.2-1.1,0.2-1.7c0.1-0.8-0.2-1.6-0.7-2.3C77.2,46.1,76.5,45.8,75.8,45.8
	C75.8,45.8,75.8,45.8,75.8,45.8z"/>
<path class="st0" d="M93.7,53.7c-0.2,0.2-0.5,0.4-0.8,0.5c-0.3,0.2-0.7,0.3-1.1,0.5c-0.4,0.2-0.9,0.3-1.4,0.4
	c-0.5,0.1-1,0.1-1.6,0.1c-0.9,0-1.7-0.1-2.6-0.4c-1.4-0.5-2.6-1.6-3.1-3c-0.3-0.8-0.4-1.6-0.4-2.5c0-0.9,0.1-1.8,0.5-2.6
	c0.3-0.7,0.7-1.3,1.3-1.8c0.6-0.5,1.2-0.9,1.9-1.1c1.3-0.4,2.8-0.5,4.1-0.2c0.6,0.1,1.2,0.4,1.7,0.8c0.5,0.4,1,0.9,1.3,1.5
	c0.3,0.7,0.5,1.5,0.4,2.3c0,0.7-0.1,1.4-0.2,2.1h-8c0,0.4,0.1,0.8,0.3,1.2c0.2,0.3,0.4,0.6,0.7,0.8c0.3,0.2,0.7,0.4,1.1,0.5
	c0.4,0.1,0.8,0.2,1.3,0.2c0.7,0,1.5-0.1,2.2-0.3c0.5-0.2,1-0.4,1.4-0.8L93.7,53.7z M88.8,45.7c-0.4,0-0.7,0.1-1.1,0.2
	c-0.3,0.1-0.6,0.3-0.9,0.5c-0.3,0.2-0.5,0.5-0.7,0.8c-0.2,0.3-0.3,0.6-0.3,1h5.5c0.1-1.2-0.8-2.3-2-2.4C89.2,45.7,89,45.7,88.8,45.7
	L88.8,45.7z"/>
<path class="st0" d="M95.4,54.9V43.7h2.7v8.6h2v-8.6h2.7v8.6h2v-8.6h2.7v11.2H95.4z"/>
<path class="st0" d="M119.7,53.7c-0.2,0.2-0.5,0.4-0.8,0.5c-0.3,0.2-0.7,0.3-1.1,0.5c-0.4,0.2-0.9,0.3-1.4,0.4
	c-0.5,0.1-1,0.1-1.6,0.1c-0.9,0-1.7-0.1-2.6-0.4c-1.4-0.5-2.6-1.6-3.1-3c-0.3-0.8-0.4-1.6-0.4-2.5c0-0.9,0.1-1.8,0.5-2.6
	c0.3-0.7,0.7-1.3,1.3-1.8c0.6-0.5,1.2-0.9,1.9-1.1c1.3-0.4,2.8-0.5,4.1-0.2c0.6,0.1,1.2,0.4,1.7,0.8c0.5,0.4,1,0.9,1.3,1.5
	c0.3,0.7,0.5,1.5,0.5,2.3c0,0.7-0.1,1.4-0.2,2.1h-8.1c0,0.4,0.1,0.8,0.3,1.2c0.2,0.3,0.4,0.6,0.7,0.8c0.3,0.2,0.7,0.4,1.1,0.5
	c0.4,0.1,0.8,0.2,1.3,0.2c0.7,0,1.5-0.1,2.2-0.3c0.5-0.2,1-0.4,1.4-0.8L119.7,53.7z M114.9,45.7c-0.4,0-0.7,0.1-1.1,0.2
	c-0.3,0.1-0.6,0.3-0.9,0.5c-0.3,0.2-0.5,0.5-0.7,0.8c-0.2,0.3-0.3,0.6-0.3,1h5.5c0.1-1.2-0.8-2.3-2-2.4
	C115.2,45.7,115,45.7,114.9,45.7L114.9,45.7z"/>
<path class="st0" d="M129.9,50.5h-4.8v4.4h-2.9V43.7h2.9v4.2h4.8v-4.2h2.9v11.2h-2.9L129.9,50.5L129.9,50.5z"/>
<path class="st0" d="M142.8,49.8l0.2-1.6h-0.1l-5.4,6.7h-2.3V43.7h2.9V49l-0.1,1.5h0.1l5.4-6.9h2.3v11.2h-2.9L142.8,49.8
	C142.9,49.8,142.8,49.8,142.8,49.8z"/>
<path class="st0" d="M147.8,52.4h1.7l1.1-1.7c-0.7-0.2-1.3-0.7-1.7-1.3c-0.4-0.7-0.6-1.4-0.5-2.2c-0.1-1.2,0.5-2.4,1.6-3
	c1.3-0.7,2.9-1.1,4.4-1c0.4,0,0.7,0,1.1,0l1.2,0.1c0.4,0,0.8,0,1.1,0.1l0.9,0.1v11.3h-2.9v-3.8h-2.2l-2.4,3.8h-3.3L147.8,52.4
	C147.8,52.4,147.8,52.4,147.8,52.4z M155.7,49v-3l-0.4-0.1h-0.5h-0.5h-0.4c-0.3,0-0.7,0-1,0.1c-0.3,0.1-0.6,0.2-0.8,0.3
	c-0.2,0.1-0.4,0.3-0.6,0.5c-0.1,0.2-0.2,0.5-0.2,0.8c0,0.2,0.1,0.5,0.2,0.7c0.1,0.2,0.3,0.3,0.5,0.4c0.3,0.1,0.5,0.2,0.8,0.2
	c0.4,0,0.8,0,1.1,0L155.7,49L155.7,49z"/>
<path class="st0" d="M174.5,41.6l1.8,0.8l-6.7,15.1l-1.8-0.9L174.5,41.6z"/>
<path class="st0" d="M187.3,54.5l-1.1-1.7l6.8-4l-6.8-4.1l1.1-1.7l8.7,5.4v0.9L187.3,54.5z"/>
</svg>
