<svg id="Layer_1" xmlns="http://www.w3.org/2000/svg" viewBox="0 0 196.1 59.4"><style>.st0{fill:#fb0}</style><title>logo</title><path class="st0" d="M0 6.4V5.4L8.7 0l1.1 1.7L3 5.8l6.8 4-1.1 1.7L0 6.4zM25.6 12.2c-.6 0-1.2-.1-1.8-.3-.5-.2-.9-.6-1.2-1-.3-.5-.5-1-.6-1.5-.2-.7-.3-1.3-.3-2h-1v4.5h-2.8V.6h2.7v4.2h1c.1-.7.2-1.3.4-1.9.1-.5.4-1 .7-1.4.3-.4.8-.7 1.2-.9.5-.2 1.1-.3 1.7-.3.7 0 1.4.1 2 .4.5.3.9.7 1.1 1.2.3.6.5 1.2.6 1.9.1.8.2 1.6.2 2.4 0 .8-.1 1.7-.2 2.5-.1.7-.3 1.3-.7 1.9-.3.5-.7.9-1.3 1.2C26.9 12.1 26.3 12.2 25.6 12.2zM24.2 6.3c0 .9.1 1.7.3 2.6.1.5.6.9 1.1.9.5 0 .9-.3 1-.8.2-.9.3-1.8.3-2.7 0-.9-.1-1.7-.3-2.6-.1-.5-.5-.9-1.1-.8-.5 0-.9.3-1 .8C24.3 4.5 24.2 5.4 24.2 6.3zM31.2 9.4h1.5V3.1h-1.5V.6H42v4.5h-2.5v-2h-3.8v6.3h3.8v2.5h-8.3C31.2 11.9 31.2 9.4 31.2 9.4zM43.7 6.3c0-.9.1-1.7.4-2.5.5-1.4 1.7-2.5 3.1-3 .8-.3 1.6-.4 2.4-.4.9 0 1.7.1 2.5.4C52.9 1 53.5 1.5 54.1 2c.5.5.9 1.2 1.2 1.9.3.8.4 1.6.4 2.4 0 .9-.1 1.7-.4 2.5-.5 1.4-1.7 2.5-3.1 3-.8.3-1.6.4-2.4.4-.9 0-1.7-.1-2.5-.4-.7-.3-1.3-.7-1.9-1.2-.5-.5-.9-1.2-1.2-1.9C43.8 7.9 43.7 7.1 43.7 6.3zM46.7 6.3c0 .5.1.9.2 1.4C47 8 47.2 8.4 47.5 8.7c.2.3.6.6.9.7.4.2.8.3 1.2.3.8 0 1.6-.3 2.1-.8.6-.7.9-1.7.8-2.6 0-.9-.2-1.8-.8-2.5-.5-.7-1.3-1-2.2-1-.4 0-.8.1-1.1.2-.4.1-.7.3-.9.6-.3.3-.5.7-.6 1.1C46.8 5.2 46.7 5.7 46.7 6.3 46.7 6.3 46.7 6.3 46.7 6.3zM55.9.6h3.8L60.1 2h.1c.9-1.2 2.3-1.8 3.8-1.7.6 0 1.3.1 1.9.3.6.2 1.1.6 1.5 1 .5.5.8 1.1 1 1.8.2.8.3 1.7.2 2.6 0 .9-.1 1.8-.4 2.6-.2.7-.6 1.4-1.1 2-.5.5-1.1 1-1.8 1.2-.8.3-1.6.4-2.4.4-.5 0-.9 0-1.4-.1-.4-.1-.8-.2-1.1-.3v4.6h-2.9V3.1h-1.7L55.9.6 55.9.6zM63.1 2.8c-.5 0-1.1.1-1.6.4-.5.3-.8.7-1 1.3v4.7c.3.2.6.3.9.4.4.1.8.1 1.2.1.4 0 .8-.1 1.2-.2.4-.1.7-.4.9-.7.3-.3.5-.8.6-1.2.2-.6.2-1.1.2-1.7.1-.8-.2-1.6-.7-2.3C64.4 3.1 63.8 2.8 63.1 2.8L63.1 2.8zM81.2 10.8c-.6.5-1.4.8-2.2 1-.8.2-1.7.4-2.6.4-.9 0-1.8-.1-2.6-.4-.7-.3-1.3-.6-1.9-1.2-.5-.5-.9-1.2-1.2-1.9-.3-.8-.4-1.6-.4-2.4 0-.9.1-1.7.5-2.5.3-.7.7-1.3 1.3-1.9.6-.5 1.3-.9 2-1.2.8-.3 1.6-.4 2.4-.4.8 0 1.6.1 2.3.3.6.1 1.1.3 1.7.6v3.9h-2.5V3.1c-.5-.1-.9-.2-1.4-.2-.4 0-.8.1-1.3.2-.4.1-.8.3-1.1.6-.3.3-.6.6-.8 1-.2.5-.3 1-.3 1.5 0 .5.1.9.3 1.3.3.8 1 1.5 1.8 1.8.5.2 1 .3 1.5.3.7 0 1.4-.1 2.1-.3.4-.2.8-.4 1.2-.6L81.2 10.8zM88 7.4h-1.4v4.4h-2.9V.6h2.9v4.6h1.2l3.7-4.6h3.3l-4.5 5.2 2.8 3.5h2v2.5h-3.4L88 7.4zM104.1 6.8l.1-1.6h-.1l-5.4 6.7h-2.3V.6h2.9V6l-.1 1.5h.1l5.4-6.9h2.3v11.2h-2.9L104.1 6.8 104.1 6.8zM120 10.7c-.2.2-.5.4-.8.5-.3.2-.7.4-1.1.5-.4.2-.9.3-1.4.4-.5.1-1 .1-1.6.1-.9 0-1.7-.1-2.6-.4-1.4-.5-2.6-1.6-3.1-3-.3-.8-.4-1.6-.4-2.5 0-.9.1-1.8.5-2.6.3-.7.7-1.3 1.3-1.9.5-.5 1.2-.9 1.9-1.1 1.3-.4 2.8-.5 4.1-.1.6.1 1.2.4 1.7.8.5.4 1 .9 1.3 1.5.3.7.5 1.5.5 2.3 0 .7-.1 1.4-.2 2.1H112c0 .4.1.8.3 1.2.2.3.4.6.7.8.3.2.7.4 1.1.5.4.1.8.2 1.3.1.7 0 1.5-.1 2.2-.3.5-.2 1-.4 1.4-.8L120 10.7zM115.2 2.7c-.4 0-.7.1-1.1.2-.3.1-.6.3-.9.5-.3.2-.5.5-.7.8-.2.3-.3.6-.3 1h5.5c0-.6-.2-1.3-.7-1.8C116.5 2.9 115.8 2.6 115.2 2.7L115.2 2.7zM78 28.3l.1-1.6h0l-5.4 6.7h-2.3V22.2h2.9v5.3L73.2 29h.1l5.4-6.9H81v11.3h-3V28.3zM91.1 29h-4.8v4.4h-2.9V22.2h2.9v4.2h4.8v-4.2H94v11.2h-2.9V29zM97.3 30.9h2.9v-6.2h-1.8v1.9h-2.5v-4.5h11.5v4.5H105v-1.9h-1.8v6.2h2.9v2.5h-8.8V30.9zM120 32.2c-.2.2-.5.4-.8.5-.3.2-.7.3-1.1.5-.4.2-.9.3-1.4.4-.5.1-1 .1-1.6.1-.9 0-1.7-.1-2.6-.4-1.4-.5-2.6-1.6-3.1-3-.3-.8-.4-1.6-.4-2.5 0-.9.1-1.8.5-2.6.3-.7.7-1.3 1.3-1.9.6-.5 1.2-.9 1.9-1.1 1.3-.4 2.8-.5 4.1-.1.6.1 1.2.4 1.7.8.5.4 1 .9 1.3 1.5.3.7.5 1.5.5 2.3 0 .7-.1 1.4-.2 2.1H112c0 .4.1.8.3 1.2.2.3.4.6.7.8.3.2.7.4 1.1.5.4.1.8.2 1.3.1.7 0 1.5-.1 2.2-.3.5-.2 1-.4 1.4-.8L120 32.2zM115.2 24.2c-.4 0-.7.1-1.1.2-.3.1-.6.3-.9.5-.3.2-.5.5-.7.8-.2.3-.3.6-.3 1h5.5c.1-1.2-.8-2.3-2-2.4C115.5 24.1 115.3 24.2 115.2 24.2L115.2 24.2zM121 22.2h3.8l.3 1.4h.1c.9-1.2 2.3-1.8 3.8-1.7.6 0 1.3.1 1.9.3.6.2 1.1.6 1.5 1 .5.5.8 1.1 1 1.8.2.8.4 1.7.3 2.5 0 .9-.1 1.8-.4 2.6-.2.7-.6 1.4-1.1 2-.5.5-1.1 1-1.8 1.2-.8.3-1.6.4-2.4.4-.5 0-.9 0-1.4-.1-.4-.1-.8-.2-1.1-.3v4.6h-2.9V24.6H121V22.2zM128.1 24.3c-.6 0-1.1.1-1.6.4-.5.3-.8.7-1 1.3v4.7c.3.2.6.3.9.4.4.1.8.1 1.2.1.4 0 .8-.1 1.2-.2.4-.1.7-.4.9-.7.3-.3.5-.8.6-1.2.2-.6.2-1.1.2-1.7.1-.8-.2-1.6-.7-2.3C129.5 24.6 128.8 24.3 128.1 24.3zM143.1 29h-4.8v4.4h-2.9V22.2h2.9v4.2h4.8v-4.2h2.9v11.2h-2.9V29zM159 32.2c-.2.2-.5.4-.8.5-.3.2-.7.3-1.1.5-.4.2-.9.3-1.4.4-.5.1-1 .1-1.6.1-.9 0-1.7-.1-2.6-.4-1.4-.5-2.6-1.6-3.1-3-.3-.8-.4-1.6-.4-2.5 0-.9.1-1.8.5-2.6.3-.7.7-1.3 1.3-1.9.6-.5 1.2-.9 1.9-1.1 1.3-.4 2.8-.5 4.1-.1.6.1 1.2.4 1.7.8.5.4 1 .9 1.3 1.5.3.7.5 1.5.5 2.3 0 .7-.1 1.4-.2 2.1H151c0 .4.1.8.3 1.2.2.3.4.6.7.8.3.2.7.4 1.1.5.4.1.8.2 1.3.1.7 0 1.5-.1 2.2-.3.5-.2 1-.4 1.4-.8L159 32.2zM154.1 24.2c-.4 0-.7.1-1.1.2-.3.1-.6.3-.9.5-.3.2-.5.5-.7.8-.2.3-.3.6-.3 1h5.5c.1-1.2-.8-2.3-2-2.4C154.5 24.2 154.3 24.2 154.1 24.2L154.1 24.2 154.1 24.2zM162.3 30.9h2.9v-6.2h-1.8v1.9H161v-4.5h11.5v4.5h-2.5v-1.9h-1.8v6.2h2.9v2.5h-8.8L162.3 30.9C162.4 30.9 162.3 30.9 162.3 30.9zM68.7 43.7h3.8l.3 1.3h.1c.9-1.2 2.3-1.8 3.8-1.7.6 0 1.3.1 1.9.3.6.2 1.1.6 1.5 1 .5.5.8 1.1 1 1.8.2.8.3 1.7.3 2.6 0 .9-.1 1.7-.4 2.6-.2.7-.6 1.4-1.1 2-.5.5-1.1 1-1.8 1.2-.8.3-1.6.4-2.4.4-.5 0-.9 0-1.4-.1-.4-.1-.8-.2-1.1-.3v4.6h-2.9V46.1h-1.7L68.7 43.7 68.7 43.7zM75.8 45.8c-.6 0-1.1.1-1.6.4-.5.3-.8.7-1 1.3v4.7c.3.2.6.3.9.4.4.1.8.1 1.2.2.4 0 .8-.1 1.2-.2.4-.1.7-.4.9-.7.3-.3.5-.8.6-1.2.2-.6.2-1.1.2-1.7.1-.8-.2-1.6-.7-2.3C77.2 46.1 76.5 45.8 75.8 45.8 75.8 45.8 75.8 45.8 75.8 45.8zM93.7 53.7c-.2.2-.5.4-.8.5-.3.2-.7.3-1.1.5-.4.2-.9.3-1.4.4-.5.1-1 .1-1.6.1-.9 0-1.7-.1-2.6-.4-1.4-.5-2.6-1.6-3.1-3-.3-.8-.4-1.6-.4-2.5 0-.9.1-1.8.5-2.6.3-.7.7-1.3 1.3-1.8.6-.5 1.2-.9 1.9-1.1 1.3-.4 2.8-.5 4.1-.2.6.1 1.2.4 1.7.8.5.4 1 .9 1.3 1.5.3.7.5 1.5.4 2.3 0 .7-.1 1.4-.2 2.1h-8c0 .4.1.8.3 1.2.2.3.4.6.7.8.3.2.7.4 1.1.5.4.1.8.2 1.3.2.7 0 1.5-.1 2.2-.3.5-.2 1-.4 1.4-.8L93.7 53.7zM88.8 45.7c-.4 0-.7.1-1.1.2-.3.1-.6.3-.9.5-.3.2-.5.5-.7.8-.2.3-.3.6-.3 1h5.5c.1-1.2-.8-2.3-2-2.4C89.2 45.7 89 45.7 88.8 45.7L88.8 45.7zM95.4 54.9V43.7h2.7v8.6h2v-8.6h2.7v8.6h2v-8.6h2.7v11.2H95.4zM119.7 53.7c-.2.2-.5.4-.8.5-.3.2-.7.3-1.1.5-.4.2-.9.3-1.4.4-.5.1-1 .1-1.6.1-.9 0-1.7-.1-2.6-.4-1.4-.5-2.6-1.6-3.1-3-.3-.8-.4-1.6-.4-2.5 0-.9.1-1.8.5-2.6.3-.7.7-1.3 1.3-1.8.6-.5 1.2-.9 1.9-1.1 1.3-.4 2.8-.5 4.1-.2.6.1 1.2.4 1.7.8.5.4 1 .9 1.3 1.5.3.7.5 1.5.5 2.3 0 .7-.1 1.4-.2 2.1h-8.1c0 .4.1.8.3 1.2.2.3.4.6.7.8.3.2.7.4 1.1.5.4.1.8.2 1.3.2.7 0 1.5-.1 2.2-.3.5-.2 1-.4 1.4-.8L119.7 53.7zM114.9 45.7c-.4 0-.7.1-1.1.2-.3.1-.6.3-.9.5-.3.2-.5.5-.7.8-.2.3-.3.6-.3 1h5.5c.1-1.2-.8-2.3-2-2.4C115.2 45.7 115 45.7 114.9 45.7L114.9 45.7zM129.9 50.5h-4.8v4.4h-2.9V43.7h2.9v4.2h4.8v-4.2h2.9v11.2h-2.9L129.9 50.5 129.9 50.5zM142.8 49.8l.2-1.6h-.1l-5.4 6.7h-2.3V43.7h2.9V49l-.1 1.5h.1l5.4-6.9h2.3v11.2h-2.9L142.8 49.8C142.9 49.8 142.8 49.8 142.8 49.8zM147.8 52.4h1.7l1.1-1.7c-.7-.2-1.3-.7-1.7-1.3-.4-.7-.6-1.4-.5-2.2-.1-1.2.5-2.4 1.6-3 1.3-.7 2.9-1.1 4.4-1 .4 0 .7 0 1.1 0l1.2.1c.4 0 .8 0 1.1.1l.9.1v11.3h-2.9v-3.8h-2.2l-2.4 3.8h-3.3L147.8 52.4C147.8 52.4 147.8 52.4 147.8 52.4zM155.7 49v-3l-.4-.1h-.5-.5-.4c-.3 0-.7 0-1 .1-.3.1-.6.2-.8.3-.2.1-.4.3-.6.5-.1.2-.2.5-.2.8 0 .2.1.5.2.7.1.2.3.3.5.4.3.1.5.2.8.2.4 0 .8 0 1.1 0L155.7 49 155.7 49zM174.5 41.6l1.8.8-6.7 15.1-1.8-.9L174.5 41.6zM187.3 54.5l-1.1-1.7 6.8-4-6.8-4.1 1.1-1.7 8.7 5.4v.9L187.3 54.5z"/></svg>